<?xml version="1.0" encoding="UTF-8" standalone="no"?>
<svg
        fill="none"
        viewBox="0 0 42 42"
        version="1.1"
        xmlns="http://www.w3.org/2000/svg"
>
    <circle
            cx="21"
            cy="21"
            fill="#131313"
            style="stroke-width:1.57895"
            r="21"/>
    <g
            clip-rule="evenodd"
            fill-rule="evenodd"
            transform="matrix(1.5833522,0,0,1.574567,-11.875142,-4.7237009)">
        <path
                d="m 20.34,11.01 c 2.82,0.15 5.62,0.5 8.11,2.06 a 4.71,4.71 0 0 1 2.41,4.08 c 0.04,2.82 -1.96,4.27 -4.58,3.95 a 25.7,25.7 0 0 1 -3.26,-0.71 c -1.9,-0.49 -3.77,-0.35 -5.64,0.1 -0.9,0.22 -1.78,0.55 -2.7,0.64 -1.74,0.17 -3.56,-0.45 -4.2,-2.17 A 4.87,4.87 0 0 1 12.4,13.1 c 2.4,-1.58 5.13,-1.95 7.94,-2.1 z"
                fill="#ffffff"
                id="path4"/>
        <path
                d="m 27.53,16.46 c 0.02,1.03 -0.68,1.9 -1.53,1.91 -0.75,0.02 -1.5,-0.85 -1.5,-1.76 -0.02,-1 0.65,-1.83 1.5,-1.86 0.85,-0.04 1.52,0.71 1.53,1.71 z m -11.15,0 c 0.01,1.03 -0.68,1.9 -1.53,1.91 -0.75,0.02 -1.5,-0.85 -1.5,-1.76 -0.02,-1 0.65,-1.83 1.5,-1.86 0.85,-0.03 1.52,0.71 1.53,1.71 z"
                fill="#000000"
        />
    </g>
    <circle
            style="fill:#e79102;fill-opacity:1;stroke-width:1.35221"
            cx="29"
            cy="29"
            r="13"/>
    <rect
            style="fill:#ffffff;fill-opacity:1;stroke-width:0.469042"
            width="4.5"
            height="11"
            x="23.5"
            y="23.5"/>
    <rect
            style="fill:#ffffff;fill-opacity:1;stroke-width:0.469042"
            width="4.5"
            height="11"
            x="30"
            y="23.5"/>
</svg>
